<svg width="73" height="72" viewBox="0 0 73 72" fill="none" xmlns="http://www.w3.org/2000/svg">
<rect x="0.5" width="72" height="72" rx="4" fill="#E7F0FA"/>
<g clip-path="url(#clip0_1170_2603)">
<path opacity="0.2" d="M30.25 41C34.7373 41 38.375 37.3623 38.375 32.875C38.375 28.3877 34.7373 24.75 30.25 24.75C25.7627 24.75 22.125 28.3877 22.125 32.875C22.125 37.3623 25.7627 41 30.25 41Z" fill="#0A65CC"/>
<path d="M30.25 41C34.7373 41 38.375 37.3623 38.375 32.875C38.375 28.3877 34.7373 24.75 30.25 24.75C25.7627 24.75 22.125 28.3877 22.125 32.875C22.125 37.3623 25.7627 41 30.25 41Z" stroke="#0A65CC" stroke-width="2" stroke-miterlimit="10"/>
<path d="M40.7832 25.0526C41.9007 24.7377 43.0728 24.666 44.2204 24.8422C45.3679 25.0184 46.4644 25.4386 47.436 26.0743C48.4075 26.7099 49.2316 27.5465 49.8526 28.5274C50.4737 29.5084 50.8773 30.6111 51.0363 31.7612C51.1953 32.9113 51.106 34.0821 50.7744 35.1948C50.4427 36.3075 49.8766 37.3362 49.1139 38.2116C48.3513 39.0871 47.4099 39.7889 46.3531 40.2699C45.2964 40.7508 44.1489 40.9998 42.9878 40.9999" stroke="#0A65CC" stroke-width="2" stroke-linecap="round" stroke-linejoin="round"/>
<path d="M18.9995 46.8432C20.2685 45.0382 21.9531 43.565 23.9112 42.548C25.8692 41.531 28.0432 41.0001 30.2496 41C32.4561 40.9999 34.6301 41.5307 36.5883 42.5476C38.5464 43.5644 40.2311 45.0375 41.5002 46.8424" stroke="#0A65CC" stroke-width="2" stroke-linecap="round" stroke-linejoin="round"/>
<path d="M42.9878 41C45.1944 40.9984 47.3689 41.5285 49.3272 42.5455C51.2855 43.5625 52.9699 45.0364 54.2378 46.8424" stroke="#0A65CC" stroke-width="2" stroke-linecap="round" stroke-linejoin="round"/>
</g>
<defs>
<clipPath id="clip0_1170_2603">
<rect width="40" height="40" fill="white" transform="translate(16.5 16)"/>
</clipPath>
</defs>
</svg>
