<svg width="73" height="72" viewBox="0 0 73 72" fill="none" xmlns="http://www.w3.org/2000/svg">
<rect x="0.5" width="72" height="72" rx="4" fill="#E7F0FA"/>
<g clip-path="url(#clip0_1170_2575)">
<path opacity="0.2" d="M36.5002 39.75C31.2343 39.7583 26.0598 38.3739 21.5015 35.7373V48.5C21.5015 48.6642 21.5338 48.8267 21.5966 48.9784C21.6594 49.1301 21.7515 49.2679 21.8676 49.3839C21.9837 49.5 22.1215 49.5921 22.2731 49.6549C22.4248 49.7177 22.5873 49.75 22.7515 49.75H50.2515C50.4156 49.75 50.5782 49.7177 50.7298 49.6549C50.8815 49.5921 51.0193 49.5 51.1354 49.3839C51.2514 49.2679 51.3435 49.1301 51.4063 48.9784C51.4691 48.8267 51.5015 48.6642 51.5015 48.5V35.7358C46.9426 38.3734 41.7672 39.7583 36.5002 39.75Z" fill="#0A65CC"/>
<path d="M50.2515 27.25H22.7515C22.0611 27.25 21.5015 27.8096 21.5015 28.5V48.5C21.5015 49.1904 22.0611 49.75 22.7515 49.75H50.2515C50.9418 49.75 51.5015 49.1904 51.5015 48.5V28.5C51.5015 27.8096 50.9418 27.25 50.2515 27.25Z" stroke="#0A65CC" stroke-width="2" stroke-linecap="round" stroke-linejoin="round"/>
<path d="M42.75 27.25V24.75C42.75 24.087 42.4866 23.4511 42.0178 22.9822C41.5489 22.5134 40.913 22.25 40.25 22.25H32.75C32.087 22.25 31.4511 22.5134 30.9822 22.9822C30.5134 23.4511 30.25 24.087 30.25 24.75V27.25" stroke="#0A65CC" stroke-width="2" stroke-linecap="round" stroke-linejoin="round"/>
<path d="M51.5012 35.7358C46.9423 38.3734 41.7669 39.7583 36.5 39.75C31.2339 39.7583 26.0594 38.3739 21.501 35.7372" stroke="#0A65CC" stroke-width="2" stroke-linecap="round" stroke-linejoin="round"/>
<path d="M34.625 34.75H38.375" stroke="#0A65CC" stroke-width="2" stroke-linecap="round" stroke-linejoin="round"/>
</g>
<defs>
<clipPath id="clip0_1170_2575">
<rect width="40" height="40" fill="white" transform="translate(16.5 16)"/>
</clipPath>
</defs>
</svg>
