<svg width="264" height="49" viewBox="0 0 264 49" fill="none" xmlns="http://www.w3.org/2000/svg">
<path d="M257.752 41C259.252 41 260.876 41 262.375 41C262.5 41.338 262.75 41.5633 263 41.7887C262.375 41.7887 261.751 41.9013 261.251 41.9013C260.126 41.9013 259.002 42.014 257.877 42.014C252.88 42.1267 248.007 42.352 243.009 42.4646C240.761 42.5773 238.512 42.69 236.263 42.69C232.764 42.69 229.141 42.8026 225.643 42.8026C217.522 42.9153 209.525 43.028 201.404 43.1406C185.662 43.366 170.044 43.5913 154.302 43.8166C143.057 43.9293 131.812 44.2673 120.568 44.6053C103.701 45.0559 86.7088 45.3939 69.8418 45.8446C66.4684 45.9573 63.095 46.0699 59.7216 46.2953C50.1012 46.7459 40.4808 47.0839 30.8603 47.5346C21.4898 47.9852 11.9943 48.3232 2.62375 48.7739C1.74917 48.7739 0.874584 48.8865 0 48.8865C2.49881 48.6612 5.12256 48.5485 7.62138 48.3232C16.4922 47.7599 25.3629 47.0839 34.2337 46.5206C37.3572 46.2953 40.4808 46.0699 43.4793 45.8446C45.1036 45.7319 46.7278 45.6193 48.2271 45.6193C57.4727 45.1686 66.7183 44.6053 75.9639 44.1546C77.7131 44.042 79.5872 43.9293 81.3363 43.8166C83.9601 43.704 86.5838 43.5913 89.0826 43.5913C98.5781 43.2533 108.074 42.9153 117.569 42.5773C119.693 42.4646 121.817 42.4646 123.816 42.352C124.316 42.352 124.941 42.352 125.44 42.352C126.94 42.352 128.439 42.352 129.813 42.2393C139.309 42.014 148.929 41.9013 158.425 41.676C162.798 41.5633 167.171 41.4507 171.543 41.4507C185.662 41.338 199.905 41.2253 214.023 41.1127C228.891 41.1127 243.384 41.1127 257.752 41Z" fill="#0879EA"/>
<path d="M31.0156 14.2031H24.1719C24.0469 13.3177 23.7917 12.5312 23.4063 11.8437C23.0208 11.1458 22.526 10.5521 21.9219 10.0625C21.3177 9.57292 20.6198 9.19792 19.8281 8.9375C19.0469 8.67708 18.1979 8.54688 17.2813 8.54688C15.625 8.54688 14.1823 8.95833 12.9531 9.78125C11.724 10.5937 10.7708 11.7812 10.0938 13.3438C9.41667 14.8958 9.07813 16.7812 9.07813 19C9.07813 21.2812 9.41667 23.1979 10.0938 24.75C10.7813 26.3021 11.7396 27.474 12.9687 28.2656C14.1979 29.0573 15.6198 29.4531 17.2344 29.4531C18.1406 29.4531 18.9792 29.3333 19.75 29.0938C20.5313 28.8542 21.224 28.5052 21.8281 28.0469C22.4323 27.5781 22.9323 27.0104 23.3281 26.3438C23.7344 25.6771 24.0156 24.9167 24.1719 24.0625L31.0156 24.0937C30.8385 25.5625 30.3958 26.9792 29.6875 28.3438C28.9896 29.6979 28.0469 30.9115 26.8594 31.9844C25.6823 33.0469 24.276 33.8906 22.6406 34.5156C21.0156 35.1302 19.1771 35.4375 17.125 35.4375C14.2708 35.4375 11.7188 34.7917 9.46875 33.5C7.22917 32.2083 5.45833 30.3385 4.15625 27.8906C2.86458 25.4427 2.21875 22.4792 2.21875 19C2.21875 15.5104 2.875 12.5417 4.1875 10.0938C5.5 7.64583 7.28125 5.78125 9.53125 4.5C11.7813 3.20833 14.3125 2.5625 17.125 2.5625C18.9792 2.5625 20.6979 2.82292 22.2813 3.34375C23.875 3.86458 25.2865 4.625 26.5156 5.625C27.7448 6.61458 28.7448 7.82812 29.5156 9.26562C30.2969 10.7031 30.7969 12.349 31.0156 14.2031ZM46.5859 35.4688C44.1589 35.4688 42.0599 34.9531 40.2891 33.9219C38.5286 32.8802 37.1693 31.4323 36.2109 29.5781C35.2526 27.7135 34.7734 25.5521 34.7734 23.0937C34.7734 20.6146 35.2526 18.4479 36.2109 16.5937C37.1693 14.7292 38.5286 13.2812 40.2891 12.25C42.0599 11.2083 44.1589 10.6875 46.5859 10.6875C49.013 10.6875 51.1068 11.2083 52.8672 12.25C54.638 13.2812 56.0026 14.7292 56.9609 16.5937C57.9193 18.4479 58.3984 20.6146 58.3984 23.0937C58.3984 25.5521 57.9193 27.7135 56.9609 29.5781C56.0026 31.4323 54.638 32.8802 52.8672 33.9219C51.1068 34.9531 49.013 35.4688 46.5859 35.4688ZM46.6172 30.3125C47.7214 30.3125 48.6432 30 49.3828 29.375C50.1224 28.7396 50.6797 27.875 51.0547 26.7812C51.4401 25.6875 51.6328 24.4427 51.6328 23.0469C51.6328 21.651 51.4401 20.4063 51.0547 19.3125C50.6797 18.2187 50.1224 17.3542 49.3828 16.7187C48.6432 16.0833 47.7214 15.7656 46.6172 15.7656C45.5026 15.7656 44.5651 16.0833 43.8047 16.7187C43.0547 17.3542 42.487 18.2187 42.1016 19.3125C41.7266 20.4063 41.5391 21.651 41.5391 23.0469C41.5391 24.4427 41.7266 25.6875 42.1016 26.7812C42.487 27.875 43.0547 28.7396 43.8047 29.375C44.5651 30 45.5026 30.3125 46.6172 30.3125ZM69.3828 21.125V35H62.7266V11H69.0703V15.2344H69.3516C69.8828 13.8385 70.7734 12.7344 72.0234 11.9219C73.2734 11.099 74.7891 10.6875 76.5703 10.6875C78.237 10.6875 79.6901 11.0521 80.9297 11.7812C82.1693 12.5104 83.1328 13.5521 83.8203 14.9062C84.5078 16.25 84.8516 17.8542 84.8516 19.7187V35H78.1953V20.9062C78.2057 19.4375 77.8307 18.2917 77.0703 17.4688C76.3099 16.6354 75.263 16.2187 73.9297 16.2187C73.0339 16.2187 72.2422 16.4115 71.5547 16.7969C70.8776 17.1823 70.3464 17.7448 69.9609 18.4844C69.5859 19.2135 69.3932 20.0938 69.3828 21.125ZM110.066 17.8437L103.973 18.2187C103.868 17.6979 103.645 17.2292 103.301 16.8125C102.957 16.3854 102.504 16.0469 101.941 15.7969C101.389 15.5365 100.728 15.4062 99.957 15.4062C98.9258 15.4062 98.056 15.625 97.3477 16.0625C96.6393 16.4896 96.2852 17.0625 96.2852 17.7812C96.2852 18.3542 96.5143 18.8385 96.9727 19.2344C97.431 19.6302 98.2174 19.9479 99.332 20.1875L103.676 21.0625C106.009 21.5417 107.749 22.3125 108.895 23.375C110.04 24.4375 110.613 25.8333 110.613 27.5625C110.613 29.1354 110.15 30.5156 109.223 31.7031C108.306 32.8906 107.046 33.8177 105.441 34.4844C103.848 35.1406 102.009 35.4688 99.9258 35.4688C96.7487 35.4688 94.2174 34.8073 92.332 33.4844C90.457 32.151 89.3581 30.3385 89.0352 28.0469L95.582 27.7031C95.7799 28.6719 96.2591 29.4115 97.0195 29.9219C97.7799 30.4219 98.7539 30.6719 99.9414 30.6719C101.108 30.6719 102.046 30.4479 102.754 30C103.473 29.5417 103.837 28.9531 103.848 28.2344C103.837 27.6302 103.582 27.1354 103.082 26.75C102.582 26.3542 101.811 26.0521 100.77 25.8437L96.6133 25.0156C94.2695 24.5469 92.5247 23.7344 91.3789 22.5781C90.2435 21.4219 89.6758 19.9479 89.6758 18.1562C89.6758 16.6146 90.0924 15.2865 90.9258 14.1719C91.7695 13.0573 92.9518 12.1979 94.4727 11.5937C96.0039 10.9896 97.7956 10.6875 99.8477 10.6875C102.879 10.6875 105.264 11.3281 107.004 12.6094C108.754 13.8906 109.775 15.6354 110.066 17.8437ZM130.195 24.7812V11H136.852V35H130.461V30.6406H130.211C129.669 32.0469 128.768 33.1771 127.508 34.0312C126.258 34.8854 124.732 35.3125 122.93 35.3125C121.326 35.3125 119.914 34.9479 118.695 34.2188C117.477 33.4896 116.523 32.4531 115.836 31.1094C115.159 29.7656 114.815 28.1562 114.805 26.2812V11H121.461V25.0937C121.471 26.5104 121.852 27.6302 122.602 28.4531C123.352 29.276 124.357 29.6875 125.617 29.6875C126.419 29.6875 127.169 29.5052 127.867 29.1406C128.565 28.7656 129.128 28.2135 129.555 27.4844C129.992 26.7552 130.206 25.8542 130.195 24.7812ZM148.832 3V35H142.176V3H148.832ZM166.93 11V16H152.477V11H166.93ZM155.758 5.25H162.414V27.625C162.414 28.2396 162.508 28.7187 162.695 29.0625C162.883 29.3958 163.143 29.6302 163.477 29.7656C163.82 29.901 164.216 29.9687 164.664 29.9687C164.977 29.9687 165.289 29.9427 165.602 29.8906C165.914 29.8281 166.154 29.7812 166.32 29.75L167.367 34.7031C167.034 34.8073 166.565 34.9271 165.961 35.0625C165.357 35.2083 164.622 35.2969 163.758 35.3281C162.154 35.3906 160.747 35.1771 159.539 34.6875C158.341 34.1979 157.409 33.4375 156.742 32.4062C156.076 31.375 155.747 30.0729 155.758 28.5V5.25ZM178.109 35.4531C176.578 35.4531 175.214 35.1875 174.016 34.6562C172.818 34.1146 171.87 33.3177 171.172 32.2656C170.484 31.2031 170.141 29.8802 170.141 28.2969C170.141 26.9635 170.385 25.8437 170.875 24.9375C171.365 24.0313 172.031 23.3021 172.875 22.75C173.719 22.1979 174.677 21.7812 175.75 21.5C176.833 21.2187 177.969 21.0208 179.156 20.9062C180.552 20.7604 181.677 20.625 182.531 20.5C183.385 20.3646 184.005 20.1667 184.391 19.9062C184.776 19.6458 184.969 19.2604 184.969 18.75V18.6562C184.969 17.6667 184.656 16.901 184.031 16.3594C183.417 15.8177 182.542 15.5469 181.406 15.5469C180.208 15.5469 179.255 15.8125 178.547 16.3437C177.839 16.8646 177.37 17.5208 177.141 18.3125L170.984 17.8125C171.297 16.3542 171.911 15.0937 172.828 14.0312C173.745 12.9583 174.927 12.1354 176.375 11.5625C177.833 10.9792 179.521 10.6875 181.438 10.6875C182.771 10.6875 184.047 10.8437 185.266 11.1562C186.495 11.4687 187.583 11.9531 188.531 12.6094C189.49 13.2656 190.245 14.1094 190.797 15.1406C191.349 16.1615 191.625 17.3854 191.625 18.8125V35H185.313V31.6719H185.125C184.74 32.4219 184.224 33.0833 183.578 33.6562C182.932 34.2187 182.156 34.6615 181.25 34.9844C180.344 35.2969 179.297 35.4531 178.109 35.4531ZM180.016 30.8594C180.995 30.8594 181.859 30.6667 182.609 30.2812C183.359 29.8854 183.948 29.3542 184.375 28.6875C184.802 28.0208 185.016 27.2656 185.016 26.4219V23.875C184.807 24.0104 184.521 24.1354 184.156 24.25C183.802 24.3542 183.401 24.4531 182.953 24.5469C182.505 24.6302 182.057 24.7083 181.609 24.7812C181.161 24.8437 180.755 24.901 180.391 24.9531C179.609 25.0677 178.927 25.25 178.344 25.5C177.76 25.75 177.307 26.0885 176.984 26.5156C176.661 26.9323 176.5 27.4531 176.5 28.0781C176.5 28.9844 176.828 29.6771 177.484 30.1562C178.151 30.625 178.995 30.8594 180.016 30.8594ZM203.445 21.125V35H196.789V11H203.133V15.2344H203.414C203.945 13.8385 204.836 12.7344 206.086 11.9219C207.336 11.099 208.852 10.6875 210.633 10.6875C212.299 10.6875 213.753 11.0521 214.992 11.7812C216.232 12.5104 217.195 13.5521 217.883 14.9062C218.57 16.25 218.914 17.8542 218.914 19.7187V35H212.258V20.9062C212.268 19.4375 211.893 18.2917 211.133 17.4688C210.372 16.6354 209.326 16.2187 207.992 16.2187C207.096 16.2187 206.305 16.4115 205.617 16.7969C204.94 17.1823 204.409 17.7448 204.023 18.4844C203.648 19.2135 203.456 20.0938 203.445 21.125ZM236.926 11V16H222.473V11H236.926ZM225.754 5.25H232.41V27.625C232.41 28.2396 232.504 28.7187 232.691 29.0625C232.879 29.3958 233.139 29.6302 233.473 29.7656C233.816 29.901 234.212 29.9687 234.66 29.9687C234.973 29.9687 235.285 29.9427 235.598 29.8906C235.91 29.8281 236.15 29.7812 236.316 29.75L237.363 34.7031C237.03 34.8073 236.561 34.9271 235.957 35.0625C235.353 35.2083 234.618 35.2969 233.754 35.3281C232.15 35.3906 230.743 35.1771 229.535 34.6875C228.337 34.1979 227.405 33.4375 226.738 32.4062C226.072 31.375 225.743 30.0729 225.754 28.5V5.25ZM260.93 17.8437L254.836 18.2187C254.732 17.6979 254.508 17.2292 254.164 16.8125C253.82 16.3854 253.367 16.0469 252.805 15.7969C252.253 15.5365 251.591 15.4062 250.82 15.4062C249.789 15.4062 248.919 15.625 248.211 16.0625C247.503 16.4896 247.148 17.0625 247.148 17.7812C247.148 18.3542 247.378 18.8385 247.836 19.2344C248.294 19.6302 249.081 19.9479 250.195 20.1875L254.539 21.0625C256.872 21.5417 258.612 22.3125 259.758 23.375C260.904 24.4375 261.477 25.8333 261.477 27.5625C261.477 29.1354 261.013 30.5156 260.086 31.7031C259.169 32.8906 257.909 33.8177 256.305 34.4844C254.711 35.1406 252.872 35.4688 250.789 35.4688C247.612 35.4688 245.081 34.8073 243.195 33.4844C241.32 32.151 240.221 30.3385 239.898 28.0469L246.445 27.7031C246.643 28.6719 247.122 29.4115 247.883 29.9219C248.643 30.4219 249.617 30.6719 250.805 30.6719C251.971 30.6719 252.909 30.4479 253.617 30C254.336 29.5417 254.701 28.9531 254.711 28.2344C254.701 27.6302 254.445 27.1354 253.945 26.75C253.445 26.3542 252.674 26.0521 251.633 25.8437L247.477 25.0156C245.133 24.5469 243.388 23.7344 242.242 22.5781C241.107 21.4219 240.539 19.9479 240.539 18.1562C240.539 16.6146 240.956 15.2865 241.789 14.1719C242.633 13.0573 243.815 12.1979 245.336 11.5937C246.867 10.9896 248.659 10.6875 250.711 10.6875C253.742 10.6875 256.128 11.3281 257.867 12.6094C259.617 13.8906 260.638 15.6354 260.93 17.8437Z" fill="#0879EA"/>
</svg>
